<?xml version="1.0" encoding="UTF-8" standalone="no"?>
<svg
   xmlns:dc="http://purl.org/dc/elements/1.1/"
   xmlns:cc="http://creativecommons.org/ns#"
   xmlns:rdf="http://www.w3.org/1999/02/22-rdf-syntax-ns#"
   xmlns:svg="http://www.w3.org/2000/svg"
   xmlns="http://www.w3.org/2000/svg"
   xmlns:sodipodi="http://sodipodi.sourceforge.net/DTD/sodipodi-0.dtd"
   xmlns:inkscape="http://www.inkscape.org/namespaces/inkscape"
   width="210mm"
   height="297mm"
   viewBox="0 0 210 297"
   version="1.1"
   id="svg8"
   inkscape:version="1.0.2 (e86c870879, 2021-01-15, custom)"
   sodipodi:docname="various_logos.svg">
  <defs
     id="defs2" />
  <sodipodi:namedview
     id="base"
     pagecolor="#ffffff"
     bordercolor="#666666"
     borderopacity="1.0"
     inkscape:pageopacity="0.0"
     inkscape:pageshadow="2"
     inkscape:zoom="0.35"
     inkscape:cx="201.53258"
     inkscape:cy="137.78867"
     inkscape:document-units="mm"
     inkscape:current-layer="layer1"
     inkscape:document-rotation="0"
     showgrid="false"
     inkscape:window-width="1920"
     inkscape:window-height="974"
     inkscape:window-x="-11"
     inkscape:window-y="-11"
     inkscape:window-maximized="1" />
  <metadata
     id="metadata5">
    <rdf:RDF>
      <cc:Work
         rdf:about="">
        <dc:format>image/svg+xml</dc:format>
        <dc:type
           rdf:resource="http://purl.org/dc/dcmitype/StillImage" />
        <dc:title />
      </cc:Work>
    </rdf:RDF>
  </metadata>
  <g
     inkscape:label="Layer 1"
     inkscape:groupmode="layer"
     id="layer1">
    <g
       id="g866"
       inkscape:export-xdpi="300"
       inkscape:export-ydpi="300"
       transform="translate(491.36905,-141.3631)">
      <g
         id="g858">
        <rect
           style="fill:#03122b;fill-opacity:1;fill-rule:evenodd;stroke:none;stroke-width:3;stroke-dashoffset:0.199937"
           id="rect849"
           width="137.91107"
           height="137.91107"
           x="-152.34363"
           y="-37.952274"
           ry="31.75" />
        <text
           xml:space="preserve"
           style="font-size:8.30378px;line-height:1.25;font-family:'Times New Roman';-inkscape-font-specification:'Times New Roman, ';fill:#64ffda;fill-opacity:1;stroke-width:0.207595"
           x="-156.77635"
           y="83.577911"
           id="text853"><tspan
             sodipodi:role="line"
             id="tspan851"
             x="-156.77635"
             y="83.577911"
             style="font-style:normal;font-variant:normal;font-weight:bold;font-stretch:normal;font-size:138.397px;font-family:sans-serif;-inkscape-font-specification:sans-serif;fill:#64ffda;fill-opacity:1;stroke-width:0.207595">in</tspan></text>
      </g>
    </g>
    <g
       id="g850"
       transform="translate(45.064687,101.86362)">
      <rect
         style="fill:#03122b;fill-opacity:1;fill-rule:evenodd;stroke:none;stroke-width:3.32889;stroke-dashoffset:0.199937"
         id="rect860"
         width="153.03012"
         height="153.03012"
         x="288.66907"
         y="-96.39888"
         ry="32.505955" />
      <rect
         style="fill:none;fill-opacity:1;fill-rule:evenodd;stroke:#64ffda;stroke-width:10.7017;stroke-miterlimit:4;stroke-dasharray:none;stroke-dashoffset:0.199937;stroke-opacity:1"
         id="rect871"
         width="127.99566"
         height="114.40953"
         x="301.18631"
         y="-77.088593"
         ry="25.742153" />
      <circle
         style="fill:none;fill-opacity:1;fill-rule:evenodd;stroke:#64ffda;stroke-width:8.07768;stroke-miterlimit:4;stroke-dasharray:none;stroke-dashoffset:0.199937;stroke-opacity:1"
         id="path873"
         cx="365.18414"
         cy="-19.883816"
         r="31.304403" />
      <rect
         style="fill:#64ffda;fill-opacity:1;fill-rule:evenodd;stroke:none;stroke-width:10.662;stroke-miterlimit:4;stroke-dasharray:none;stroke-dashoffset:0.199937;stroke-opacity:1"
         id="rect875"
         width="25.691254"
         height="25.691254"
         x="392.98682"
         y="-67.133385"
         ry="12.845627" />
    </g>
    <g
       id="g870"
       inkscape:export-xdpi="300"
       inkscape:export-ydpi="300"
       transform="translate(477.00595,8.3154762)">
      <rect
         style="fill:#03122b;fill-opacity:1;fill-rule:evenodd;stroke:none;stroke-width:3;stroke-dashoffset:0.199937"
         id="rect895"
         width="137.91107"
         height="137.91107"
         x="-133.10022"
         y="177.46696"
         ry="28.726191" />
      <path
         fill-rule="evenodd"
         clip-rule="evenodd"
         d="m -64.097321,190.42478 c -31.516092,0 -56.993789,25.66554 -56.993789,57.41726 0,25.38088 16.32445,46.86521 38.970757,54.46923 2.831356,0.57161 3.8685,-1.23547 3.8685,-2.75556 0,-1.33111 -0.09348,-5.89371 -0.09348,-10.64768 -15.85429,3.42286 -19.15581,-6.84452 -19.15581,-6.84452 -2.547877,-6.65436 -6.323037,-8.36462 -6.323037,-8.36462 -5.18911,-3.51734 0.37787,-3.51734 0.37787,-3.51734 5.756057,0.38007 8.776437,5.89371 8.776437,5.89371 5.09458,8.74495 13.304071,6.27405 16.606732,4.75282 0.471305,-3.70752 1.982091,-6.27406 3.586176,-7.69965 -12.644928,-1.33111 -25.949005,-6.27406 -25.949005,-28.32891 0,-6.27405 2.263217,-11.40717 5.849397,-15.39931 -0.5658,-1.4256 -2.54789,-7.3205 0.56699,-15.21032 0,0 4.8123,-1.52128 15.662971,5.89375 a 54.795867,54.795867 0 0 1 14.249022,-1.90157 c 4.812256,0 9.7179,0.6661 14.247832,1.90157 10.85187,-7.41503 15.664126,-5.89375 15.664126,-5.89375 3.114871,7.88982 1.131634,13.78472 0.565839,15.21032 3.680666,3.99214 5.850547,9.12526 5.850547,15.39931 0,22.05485 -13.304076,26.90212 -26.043503,28.32891 2.076581,1.80589 3.8685,5.22756 3.8685,10.64648 0,7.69966 -0.09348,13.87922 -0.09348,15.77965 0,1.52124 1.038291,3.32832 3.868456,2.75786 22.646351,-7.60631 38.9707629,-29.0895 38.9707629,-54.47038 0.09348,-31.75172 -25.4776629,-57.41726 -56.8992599,-57.41726 z"
         fill="#24292f"
         id="path897"
         style="fill:#64ffda;fill-opacity:1;stroke-width:1.16661" />
    </g>
    <g
       id="g865"
       inkscape:export-xdpi="300"
       inkscape:export-ydpi="300">
      <rect
         style="fill:#03122b;fill-opacity:1;fill-rule:evenodd;stroke:none;stroke-width:3;stroke-dashoffset:0.199937"
         id="rect844"
         width="137.91107"
         height="137.91107"
         x="-128.9091"
         y="-179.31537"
         ry="31.75" />
      <text
         xml:space="preserve"
         style="font-size:8.30378px;line-height:1.25;font-family:'Times New Roman';-inkscape-font-specification:'Times New Roman, ';fill:#00eeb6;fill-opacity:1;stroke-width:0.207595;"
         x="-133.34183"
         y="-57.785187"
         id="text848"><tspan
           sodipodi:role="line"
           id="tspan846"
           x="-133.34183"
           y="-57.785187"
           style="font-style:normal;font-variant:normal;font-weight:bold;font-stretch:normal;font-size:138.397px;font-family:sans-serif;-inkscape-font-specification:sans-serif;fill:#00eeb6;fill-opacity:1;stroke-width:0.207595;">in</tspan></text>
    </g>
    <g
       id="g908"
       inkscape:export-xdpi="300"
       inkscape:export-ydpi="300">
      <rect
         style="fill:#03122b;fill-opacity:1;fill-rule:evenodd;stroke:none;stroke-width:3.32889;stroke-dashoffset:0.199937"
         id="rect876"
         width="153.03012"
         height="153.03012"
         x="-137.68808"
         y="10.19041"
         ry="32.505955" />
      <g
         id="g901">
        <rect
           style="fill:none;fill-opacity:1;fill-rule:evenodd;stroke:#00eeb6;stroke-width:10.7017;stroke-miterlimit:4;stroke-dasharray:none;stroke-dashoffset:0.199937;stroke-opacity:1"
           id="rect878"
           width="127.99566"
           height="114.40953"
           x="-125.17083"
           y="29.500698"
           ry="25.742153" />
        <circle
           style="fill:none;fill-opacity:1;fill-rule:evenodd;stroke:#00eeb6;stroke-width:8.07768;stroke-miterlimit:4;stroke-dasharray:none;stroke-dashoffset:0.199937;stroke-opacity:1"
           id="circle880"
           cx="-61.172997"
           cy="86.705475"
           r="31.304403" />
        <rect
           style="fill:#00eeb6;fill-opacity:1;fill-rule:evenodd;stroke:none;stroke-width:10.662;stroke-miterlimit:4;stroke-dasharray:none;stroke-dashoffset:0.199937;stroke-opacity:1"
           id="rect882"
           width="25.691254"
           height="25.691254"
           x="-33.370323"
           y="39.455906"
           ry="12.845627" />
      </g>
    </g>
    <g
       id="g912"
       inkscape:export-xdpi="300"
       inkscape:export-ydpi="300">
      <rect
         style="fill:#03122b;fill-opacity:1;fill-rule:evenodd;stroke:none;stroke-width:3;stroke-dashoffset:0.199937"
         id="rect886"
         width="137.91107"
         height="137.91107"
         x="-134.61212"
         y="181.24672"
         ry="28.726191" />
      <path
         fill-rule="evenodd"
         clip-rule="evenodd"
         d="m -65.609225,194.20454 c -31.516092,0 -56.993785,25.66554 -56.993785,57.41726 0,25.38088 16.32445,46.86521 38.970753,54.46923 2.831356,0.57161 3.8685,-1.23547 3.8685,-2.75556 0,-1.33111 -0.09348,-5.89371 -0.09348,-10.64768 -15.85429,3.42286 -19.15581,-6.84452 -19.15581,-6.84452 -2.547873,-6.65436 -6.323033,-8.36462 -6.323033,-8.36462 -5.18911,-3.51734 0.37787,-3.51734 0.37787,-3.51734 5.756053,0.38007 8.776433,5.89371 8.776433,5.89371 5.09458,8.74495 13.304071,6.27405 16.606732,4.75282 0.471305,-3.70752 1.982091,-6.27406 3.586176,-7.69965 -12.644928,-1.33111 -25.949001,-6.27406 -25.949001,-28.32891 0,-6.27405 2.263213,-11.40717 5.849393,-15.39931 -0.5658,-1.4256 -2.54789,-7.3205 0.56699,-15.21032 0,0 4.8123,-1.52128 15.662971,5.89375 a 54.795867,54.795867 0 0 1 14.249022,-1.90157 c 4.812256,0 9.7179,0.6661 14.247832,1.90157 10.85187,-7.41503 15.664126,-5.89375 15.664126,-5.89375 3.114871,7.88982 1.131634,13.78472 0.565839,15.21032 3.680666,3.99214 5.850547,9.12526 5.850547,15.39931 0,22.05485 -13.304076,26.90212 -26.043503,28.32891 2.076581,1.80589 3.8685,5.22756 3.8685,10.64648 0,7.69966 -0.09348,13.87922 -0.09348,15.77965 0,1.52124 1.038291,3.32832 3.868456,2.75786 22.646351,-7.60631 38.9707625,-29.0895 38.9707625,-54.47038 0.09348,-31.75172 -25.4776625,-57.41726 -56.8992595,-57.41726 z"
         fill="#24292f"
         id="path888"
         style="fill:#00eeb6;fill-opacity:1;stroke-width:1.16661" />
    </g>
    <g
       id="g899"
       inkscape:export-xdpi="300"
       inkscape:export-ydpi="300">
      <rect
         style="fill:#03122b;fill-opacity:1;fill-rule:evenodd;stroke:none;stroke-width:3;stroke-dashoffset:0.199937"
         id="rect856"
         width="137.91107"
         height="137.91107"
         x="85.025414"
         y="-184.60704"
         ry="31.75" />
      <text
         xml:space="preserve"
         style="font-size:8.30378px;line-height:1.25;font-family:'Times New Roman';-inkscape-font-specification:'Times New Roman, ';fill:#f09d51;fill-opacity:1;stroke-width:0.207595;"
         x="80.59269"
         y="-63.076855"
         id="text860"><tspan
           sodipodi:role="line"
           id="tspan858"
           x="80.59269"
           y="-63.076855"
           style="font-style:normal;font-variant:normal;font-weight:bold;font-stretch:normal;font-size:138.397px;font-family:sans-serif;-inkscape-font-specification:sans-serif;fill:#f09d51;fill-opacity:1;stroke-width:0.207595;">in</tspan></text>
    </g>
    <g
       id="g905"
       inkscape:export-xdpi="300"
       inkscape:export-ydpi="300">
      <rect
         style="fill:#03122b;fill-opacity:1;fill-rule:evenodd;stroke:none;stroke-width:3.32889;stroke-dashoffset:0.199937"
         id="rect864"
         width="153.03012"
         height="153.03012"
         x="76.246437"
         y="4.8987432"
         ry="32.505955" />
      <rect
         style="fill:none;fill-opacity:1;fill-rule:evenodd;stroke:#f09d51;stroke-width:10.7017;stroke-miterlimit:4;stroke-dasharray:none;stroke-dashoffset:0.199937;stroke-opacity:1"
         id="rect866"
         width="127.99566"
         height="114.40953"
         x="88.763687"
         y="24.209032"
         ry="25.742153" />
      <circle
         style="fill:none;fill-opacity:1;fill-rule:evenodd;stroke:#f09d51;stroke-width:8.07768;stroke-miterlimit:4;stroke-dasharray:none;stroke-dashoffset:0.199937;stroke-opacity:1"
         id="circle868"
         cx="152.76152"
         cy="81.413811"
         r="31.304403" />
      <rect
         style="fill:#f09d51;fill-opacity:1;fill-rule:evenodd;stroke:none;stroke-width:10.662;stroke-miterlimit:4;stroke-dasharray:none;stroke-dashoffset:0.199937;stroke-opacity:1"
         id="rect870"
         width="25.691254"
         height="25.691254"
         x="180.56419"
         y="34.164238"
         ry="12.845627" />
    </g>
    <g
       id="g909"
       inkscape:export-xdpi="300"
       inkscape:export-ydpi="300">
      <rect
         style="fill:#03122b;fill-opacity:1;fill-rule:evenodd;stroke:none;stroke-width:3;stroke-dashoffset:0.199937"
         id="rect877"
         width="137.91107"
         height="137.91107"
         x="79.322395"
         y="175.95505"
         ry="28.726191" />
      <path
         fill-rule="evenodd"
         clip-rule="evenodd"
         d="m 148.32529,188.91287 c -31.51609,0 -56.99378,25.66554 -56.99378,57.41726 0,25.38088 16.32445,46.86521 38.97075,54.46923 2.83136,0.57161 3.8685,-1.23547 3.8685,-2.75556 0,-1.33111 -0.0935,-5.89371 -0.0935,-10.64768 -15.85429,3.42286 -19.15581,-6.84452 -19.15581,-6.84452 -2.54787,-6.65436 -6.32303,-8.36462 -6.32303,-8.36462 -5.18911,-3.51734 0.37787,-3.51734 0.37787,-3.51734 5.75605,0.38007 8.77643,5.89371 8.77643,5.89371 5.09458,8.74495 13.30407,6.27405 16.60673,4.75282 0.47131,-3.70752 1.9821,-6.27406 3.58618,-7.69965 -12.64493,-1.33111 -25.949,-6.27406 -25.949,-28.32891 0,-6.27405 2.26321,-11.40717 5.84939,-15.39931 -0.5658,-1.4256 -2.54789,-7.3205 0.56699,-15.21032 0,0 4.8123,-1.52128 15.66297,5.89375 a 54.795867,54.795867 0 0 1 14.24903,-1.90157 c 4.81225,0 9.7179,0.6661 14.24783,1.90157 10.85187,-7.41503 15.66412,-5.89375 15.66412,-5.89375 3.11487,7.88982 1.13164,13.78472 0.56584,15.21032 3.68067,3.99214 5.85055,9.12526 5.85055,15.39931 0,22.05485 -13.30408,26.90212 -26.0435,28.32891 2.07658,1.80589 3.8685,5.22756 3.8685,10.64648 0,7.69966 -0.0935,13.87922 -0.0935,15.77965 0,1.52124 1.03829,3.32832 3.86845,2.75786 22.64635,-7.60631 38.97077,-29.0895 38.97077,-54.47038 0.0935,-31.75172 -25.47767,-57.41726 -56.89926,-57.41726 z"
         fill="#24292f"
         id="path879"
         style="fill:#f09d51;fill-opacity:1;stroke-width:1.16661" />
    </g>
  </g>
</svg>
